<?xml version="1.0" standalone="no"?>
<!DOCTYPE svg PUBLIC "-//W3C//DTD SVG 20010904//EN"
 "http://www.w3.org/TR/2001/REC-SVG-20010904/DTD/svg10.dtd">
<svg version="1.0" xmlns="http://www.w3.org/2000/svg"
 width="460.000000pt" height="460.000000pt" viewBox="0 0 460.000000 460.000000"
 preserveAspectRatio="xMidYMid meet">
<metadata>
Created by potrace 1.11, written by Peter Selinger 2001-2013
</metadata>
<g transform="translate(0.000000,460.000000) scale(0.100000,-0.100000)"
fill="#000000" stroke="none">
<path d="M2040 4589 c-414 -47 -800 -205 -1155 -472 -103 -78 -324 -299 -402
-402 -270 -359 -425 -740 -474 -1174 -17 -155 -7 -475 21 -631 170 -963 920
-1713 1880 -1880 160 -28 423 -37 596 -21 540 50 1038 283 1419 666 353 354
578 803 651 1300 24 164 24 486 0 650 -129 876 -731 1591 -1569 1864 -144 47
-328 86 -476 101 -119 12 -382 11 -491 -1z"/>
</g>
</svg>
