<?xml version="1.0" encoding="utf-8"?>
<!-- Generator: Adobe Illustrator 21.1.0, SVG Export Plug-In . SVG Version: 6.00 Build 0)  -->
<svg version="1.1" xmlns="http://www.w3.org/2000/svg" xmlns:xlink="http://www.w3.org/1999/xlink" x="0px" y="0px"
	 viewBox="0 0 100.56 118.064" style="enable-background:new 0 0 100.56 118.064;" xml:space="preserve">
<style type="text/css">
	.st0{fill:#FFFFFF;}
	.st1{enable-background:new    ;}
	.st2{fill-rule:evenodd;clip-rule:evenodd;fill:#FFFFFF;}
</style>
<g id="Digital_x0D_Media__x0D_Design">
	<g>
		<path class="st0" d="M11.777,13.74c1.346,0.743,2.403,1.767,3.17,3.072s1.151,2.766,1.151,4.382s-0.388,3.076-1.163,4.382
			c-0.775,1.306-1.84,2.33-3.194,3.072c-1.355,0.743-2.873,1.114-4.553,1.114H0.284V12.625h6.977
			C8.925,12.625,10.43,12.997,11.777,13.74z M10.553,26.8c0.971-0.555,1.738-1.322,2.301-2.301s0.845-2.072,0.845-3.28
			c0-1.224-0.286-2.326-0.857-3.305c-0.572-0.979-1.351-1.75-2.338-2.313c-0.988-0.563-2.085-0.845-3.292-0.845H2.634v12.876h4.676
			C8.501,27.632,9.582,27.354,10.553,26.8z"/>
		<path class="st0" d="M20.676,12.625h2.35v17.136h-2.35V12.625z"/>
		<path class="st0" d="M40.993,21.39h2.081v6.292c-0.865,0.685-1.877,1.232-3.035,1.64c-1.159,0.408-2.31,0.612-3.452,0.612
			c-1.649,0-3.158-0.388-4.529-1.163c-1.371-0.775-2.453-1.836-3.244-3.183c-0.792-1.346-1.188-2.819-1.188-4.418
			s0.4-3.064,1.2-4.395c0.799-1.33,1.893-2.378,3.28-3.146c1.387-0.767,2.921-1.15,4.602-1.15c1.191,0,2.354,0.212,3.488,0.636
			c1.134,0.425,2.118,1.004,2.95,1.738l-1.347,1.713c-0.685-0.636-1.473-1.13-2.362-1.481c-0.89-0.351-1.799-0.526-2.729-0.526
			c-1.224,0-2.35,0.294-3.378,0.881c-1.028,0.587-1.84,1.387-2.436,2.399c-0.596,1.012-0.894,2.122-0.894,3.33
			s0.302,2.322,0.906,3.341c0.604,1.02,1.42,1.828,2.448,2.423c1.028,0.596,2.154,0.894,3.378,0.894
			c0.718,0,1.448-0.118,2.191-0.355c0.743-0.236,1.432-0.567,2.069-0.991V21.39z"/>
		<path class="st0" d="M48.753,12.625h2.349v17.136h-2.349V12.625z"/>
		<path class="st0" d="M55.02,12.625h13.391v2.154h-5.533v14.982h-2.35V14.78H55.02V12.625z"/>
		<path class="st0" d="M83.417,29.762L81.605,25.6h-9.033l-1.787,4.162h-2.473l7.613-17.136h2.448l7.589,17.136H83.417z
			 M73.503,23.47h7.196l-3.623-8.323L73.503,23.47z"/>
		<path class="st0" d="M89.683,12.625h2.35v15.006h7.491v2.13h-9.841V12.625z"/>
		<path class="st0" d="M0.284,40.465h2.791L9.341,52.51l6.218-12.044h2.815v17.136h-2.203l-0.024-13.684L10.051,55.79H8.607
			L2.463,43.917v13.684H0.284V40.465z"/>
		<path class="st0" d="M28.167,40.465h11.897v2.13h-9.547v5.288h8.544v2.13h-8.544v5.459h9.841v2.13H28.167V40.465z"/>
		<path class="st0" d="M60.542,41.58c1.346,0.743,2.402,1.767,3.17,3.072s1.15,2.766,1.15,4.382s-0.389,3.076-1.162,4.382
			c-0.775,1.306-1.842,2.33-3.195,3.072c-1.355,0.743-2.873,1.114-4.553,1.114h-6.904V40.465h6.976
			C57.69,40.465,59.194,40.837,60.542,41.58z M59.317,54.64c0.971-0.555,1.738-1.322,2.301-2.301s0.846-2.072,0.846-3.28
			c0-1.224-0.287-2.326-0.857-3.305c-0.572-0.979-1.352-1.75-2.338-2.313c-0.988-0.563-2.086-0.845-3.293-0.845h-4.578v12.876h4.676
			C57.264,55.472,58.346,55.194,59.317,54.64z"/>
		<path class="st0" d="M73.112,40.465h2.35v17.136h-2.35V40.465z"/>
		<path class="st0" d="M97.983,57.602l-1.812-4.162h-9.033l-1.787,4.162h-2.473l7.613-17.136h2.448l7.589,17.136H97.983z
			 M88.069,51.31h7.196l-3.623-8.323L88.069,51.31z"/>
		<path class="st0" d="M11.777,69.419c1.346,0.743,2.403,1.767,3.17,3.072s1.151,2.767,1.151,4.382c0,1.616-0.388,3.077-1.163,4.382
			c-0.775,1.307-1.84,2.33-3.194,3.072c-1.355,0.743-2.873,1.114-4.553,1.114H0.284V68.306h6.977
			C8.925,68.306,10.43,68.677,11.777,69.419z M10.553,82.479c0.971-0.555,1.738-1.322,2.301-2.302
			c0.563-0.979,0.845-2.072,0.845-3.28c0-1.224-0.286-2.325-0.857-3.305c-0.572-0.979-1.351-1.75-2.338-2.313
			c-0.988-0.562-2.085-0.844-3.292-0.844H2.634v12.876h4.676C8.501,83.312,9.582,83.034,10.553,82.479z"/>
		<path class="st0" d="M21.41,68.306h11.897v2.13H23.76v5.287h8.544v2.13H23.76v5.459h9.841v2.13H21.41V68.306z"/>
		<path class="st0" d="M46.881,70.741c-0.857-0.253-1.645-0.38-2.362-0.38c-0.996,0-1.791,0.192-2.387,0.575
			c-0.596,0.384-0.894,0.91-0.894,1.579c0,0.604,0.179,1.098,0.539,1.481c0.359,0.384,0.799,0.686,1.322,0.905
			c0.522,0.221,1.249,0.478,2.179,0.771c1.159,0.359,2.097,0.702,2.815,1.028c0.718,0.326,1.33,0.812,1.835,1.456
			c0.506,0.646,0.76,1.498,0.76,2.559c0,0.979-0.266,1.836-0.796,2.57s-1.273,1.302-2.228,1.701c-0.955,0.4-2.052,0.6-3.292,0.6
			c-1.257,0-2.481-0.244-3.672-0.734c-1.191-0.489-2.22-1.142-3.084-1.958l1.053-2.032c0.816,0.8,1.734,1.416,2.754,1.849
			c1.02,0.433,2.011,0.648,2.974,0.648c1.142,0,2.044-0.224,2.705-0.673c0.661-0.449,0.992-1.057,0.992-1.824
			c0-0.604-0.18-1.102-0.539-1.493c-0.359-0.392-0.812-0.701-1.359-0.93s-1.285-0.481-2.215-0.759
			c-1.143-0.343-2.073-0.678-2.791-1.004c-0.719-0.326-1.326-0.808-1.824-1.444c-0.498-0.637-0.747-1.477-0.747-2.521
			c0-0.914,0.253-1.722,0.759-2.424c0.505-0.701,1.215-1.24,2.129-1.615s1.975-0.563,3.183-0.563c1.028,0,2.036,0.151,3.023,0.453
			c0.987,0.302,1.864,0.706,2.631,1.212l-0.979,2.105C48.566,71.374,47.738,70.994,46.881,70.741z"/>
		<path class="st0" d="M56.391,68.306h2.35v17.136h-2.35V68.306z"/>
		<path class="st0" d="M77.444,77.069h2.081v6.291c-0.865,0.686-1.877,1.232-3.035,1.641c-1.159,0.408-2.31,0.611-3.452,0.611
			c-1.648,0-3.157-0.387-4.528-1.162s-2.452-1.836-3.244-3.183c-0.791-1.347-1.187-2.819-1.187-4.419
			c0-1.599,0.399-3.063,1.199-4.394c0.799-1.33,1.893-2.379,3.28-3.146c1.387-0.768,2.921-1.151,4.603-1.151
			c1.19,0,2.354,0.213,3.488,0.637c1.134,0.425,2.117,1.004,2.949,1.738l-1.346,1.714c-0.686-0.637-1.474-1.13-2.362-1.481
			c-0.89-0.351-1.8-0.526-2.729-0.526c-1.225,0-2.351,0.294-3.379,0.882c-1.028,0.587-1.84,1.387-2.436,2.398
			c-0.596,1.013-0.894,2.122-0.894,3.329c0,1.208,0.302,2.322,0.906,3.342c0.604,1.021,1.42,1.828,2.447,2.424
			c1.028,0.596,2.154,0.894,3.379,0.894c0.718,0,1.448-0.118,2.19-0.355c0.742-0.236,1.433-0.566,2.068-0.991V77.069z"/>
		<path class="st0" d="M98.129,68.306h2.326v17.136H98.08l-9.792-13.269v13.269h-2.35V68.306h2.374l9.816,13.292V68.306z"/>
	</g>
</g>
<g id="Graduate_Exhibition">
	<g>
		<path class="st0" d="M4.222,96.369v1.676c-0.234,0.185-0.502,0.332-0.806,0.441c-0.303,0.109-0.607,0.164-0.912,0.164
			c-0.44,0-0.844-0.104-1.21-0.312c-0.366-0.208-0.657-0.49-0.874-0.848c-0.216-0.356-0.324-0.748-0.324-1.176
			s0.108-0.818,0.324-1.172c0.216-0.354,0.511-0.634,0.885-0.841c0.374-0.207,0.783-0.311,1.228-0.311
			c0.316,0,0.623,0.056,0.92,0.169c0.297,0.112,0.558,0.268,0.782,0.466l-0.303,0.396c-0.189-0.168-0.406-0.299-0.651-0.394
			s-0.494-0.142-0.748-0.142c-0.348,0-0.667,0.081-0.957,0.243s-0.52,0.384-0.69,0.664c-0.169,0.28-0.254,0.587-0.254,0.92
			c0,0.335,0.086,0.644,0.258,0.925s0.403,0.504,0.693,0.667s0.609,0.245,0.957,0.245c0.206,0,0.415-0.034,0.627-0.104
			c0.211-0.068,0.408-0.164,0.588-0.286v-1.393H4.222z"/>
		<path class="st0" d="M8.887,97.152c-0.131,0.009-0.234,0.013-0.31,0.013H7.35v1.46H6.821v-4.621h1.756
			c0.576,0,1.023,0.135,1.342,0.406c0.319,0.271,0.479,0.652,0.479,1.146c0,0.379-0.089,0.695-0.268,0.949
			c-0.178,0.255-0.434,0.438-0.767,0.55l1.08,1.569h-0.6L8.887,97.152z M9.549,96.382c0.227-0.185,0.34-0.455,0.34-0.812
			c0-0.349-0.113-0.611-0.34-0.79c-0.227-0.178-0.55-0.268-0.972-0.268H7.35v2.146h1.228C8.999,96.659,9.323,96.566,9.549,96.382z"
			/>
		<path class="st0" d="M13.314,97.458l-0.516,1.167h-0.561l2.072-4.621h0.548l2.065,4.621h-0.574l-0.516-1.167H13.314z
			 M14.568,94.606l-1.028,2.343h2.072L14.568,94.606z"/>
		<path class="st0" d="M22.044,94.309c0.36,0.203,0.645,0.479,0.854,0.831s0.314,0.743,0.314,1.175s-0.104,0.824-0.314,1.176
			c-0.209,0.353-0.497,0.63-0.862,0.832s-0.771,0.303-1.218,0.303h-1.85v-4.621h1.869C21.282,94.004,21.684,94.105,22.044,94.309z
			 M19.497,98.122h1.347c0.34,0,0.649-0.078,0.928-0.233c0.279-0.156,0.5-0.371,0.662-0.646c0.163-0.274,0.244-0.582,0.244-0.922
			c0-0.339-0.083-0.646-0.248-0.92c-0.166-0.273-0.389-0.49-0.67-0.649c-0.282-0.158-0.593-0.238-0.935-0.238h-1.328V98.122z"/>
		<path class="st0" d="M28.754,98.14c-0.344,0.341-0.817,0.511-1.421,0.511c-0.608,0-1.084-0.17-1.429-0.511
			c-0.345-0.34-0.518-0.812-0.518-1.416v-2.72h0.529v2.72c0,0.444,0.126,0.792,0.38,1.043c0.253,0.25,0.599,0.375,1.038,0.375
			c0.44,0,0.785-0.124,1.034-0.372c0.25-0.248,0.374-0.597,0.374-1.046v-2.72h0.528v2.72C29.269,97.327,29.097,97.8,28.754,98.14z"
			/>
		<path class="st0" d="M32.149,97.458l-0.516,1.167h-0.561l2.072-4.621h0.548l2.065,4.621h-0.574l-0.516-1.167H32.149z
			 M33.403,94.606l-1.028,2.343h2.072L33.403,94.606z"/>
		<path class="st0" d="M38.781,94.513v4.112h-0.529v-4.112H36.75v-0.509h3.542v0.509H38.781z"/>
		<path class="st0" d="M42.905,94.513v1.519h2.33v0.509h-2.33v1.582h2.694v0.503h-3.223v-4.621h3.136v0.509H42.905z"/>
		<path class="st0" d="M51.648,94.513v1.519h2.33v0.509h-2.33v1.582h2.694v0.503H51.12v-4.621h3.136v0.509H51.648z"/>
		<path class="st0" d="M60.235,98.625H59.6l-1.405-1.934l-1.393,1.934H56.18l1.695-2.375l-1.575-2.246h0.618l1.276,1.782
			l1.286-1.782h0.622l-1.573,2.221L60.235,98.625z"/>
		<path class="st0" d="M65.754,98.625v-2.033H62.97v2.033h-0.528v-4.621h0.528v2.088h2.784v-2.088h0.529v4.621H65.754z"/>
		<path class="st0" d="M69.002,98.625v-4.621h0.528v4.621H69.002z"/>
		<path class="st0" d="M75.291,94.312c0.265,0.205,0.396,0.488,0.396,0.849c0,0.273-0.074,0.501-0.224,0.684
			s-0.358,0.302-0.627,0.357c0.335,0.05,0.595,0.178,0.78,0.384c0.185,0.206,0.276,0.469,0.276,0.786
			c0,0.392-0.147,0.698-0.442,0.92c-0.296,0.223-0.703,0.334-1.224,0.334h-1.979v-4.621h1.946
			C74.662,94.004,75.027,94.106,75.291,94.312z M72.777,95.998h1.393c0.312,0,0.553-0.064,0.725-0.194s0.258-0.316,0.258-0.56
			c0-0.233-0.086-0.414-0.258-0.541s-0.413-0.19-0.725-0.19h-1.393V95.998z M72.777,98.122h1.393c0.378,0,0.671-0.071,0.878-0.214
			c0.207-0.144,0.312-0.347,0.312-0.611c0-0.251-0.105-0.446-0.314-0.586c-0.21-0.14-0.501-0.21-0.875-0.21h-1.393V98.122z"/>
		<path class="st0" d="M78.294,98.625v-4.621h0.528v4.621H78.294z"/>
		<path class="st0" d="M82.945,94.513v4.112h-0.528v-4.112h-1.502v-0.509h3.542v0.509H82.945z"/>
		<path class="st0" d="M86.541,98.625v-4.621h0.528v4.621H86.541z"/>
		<path class="st0" d="M92.988,94.302c0.369,0.207,0.662,0.488,0.878,0.843s0.324,0.744,0.324,1.17c0,0.428-0.108,0.819-0.324,1.176
			c-0.216,0.357-0.509,0.64-0.878,0.848c-0.369,0.209-0.773,0.312-1.212,0.312c-0.444,0-0.852-0.104-1.221-0.312
			c-0.37-0.208-0.663-0.49-0.879-0.848c-0.216-0.356-0.323-0.748-0.323-1.176s0.107-0.819,0.323-1.175s0.509-0.636,0.879-0.841
			c0.369-0.205,0.776-0.308,1.221-0.308C92.215,93.991,92.619,94.095,92.988,94.302z M90.836,94.738
			c-0.288,0.163-0.519,0.384-0.69,0.661c-0.172,0.276-0.258,0.582-0.258,0.915c0,0.335,0.086,0.643,0.258,0.922
			s0.402,0.5,0.69,0.662c0.287,0.162,0.602,0.243,0.94,0.243c0.34,0,0.651-0.081,0.937-0.243c0.284-0.162,0.512-0.383,0.682-0.662
			s0.255-0.587,0.255-0.922s-0.085-0.641-0.255-0.917s-0.397-0.496-0.684-0.659c-0.285-0.163-0.597-0.245-0.935-0.245
			C91.437,94.493,91.123,94.575,90.836,94.738z"/>
		<path class="st0" d="M99.773,98.625l-2.771-3.709v3.709h-0.528v-4.621h0.548l2.771,3.716v-3.716h0.522v4.621H99.773z"/>
	</g>
</g>
<g id="_x32_3_-_26_June_2017">
	<g>
		<path class="st0" d="M7.807,109.52c0.292,0.234,0.438,0.552,0.438,0.95c0,0.241-0.083,0.509-0.25,0.803s-0.394,0.598-0.685,0.91
			l-1.628,1.724h2.864v0.576H4.911v-0.498l1.982-2.156c0.221-0.222,0.397-0.446,0.528-0.676c0.13-0.229,0.195-0.429,0.195-0.602
			c0-0.256-0.093-0.457-0.278-0.604c-0.186-0.146-0.445-0.22-0.777-0.22c-0.241,0-0.489,0.059-0.744,0.174
			c-0.255,0.115-0.488,0.277-0.7,0.483l-0.266-0.483c0.256-0.231,0.539-0.411,0.849-0.541c0.31-0.129,0.621-0.193,0.934-0.193
			C7.124,109.167,7.515,109.284,7.807,109.52z"/>
		<path class="st0" d="M13.599,111.859c0.29,0.248,0.436,0.58,0.436,0.999c0,0.322-0.076,0.609-0.227,0.861
			c-0.151,0.253-0.367,0.447-0.646,0.586c-0.279,0.138-0.606,0.206-0.98,0.206c-0.298,0-0.596-0.049-0.894-0.147
			s-0.56-0.228-0.786-0.388l0.266-0.506c0.192,0.155,0.407,0.277,0.646,0.365c0.239,0.089,0.48,0.134,0.724,0.134
			c0.408,0,0.729-0.1,0.96-0.3c0.231-0.199,0.347-0.462,0.347-0.79c0-0.327-0.114-0.576-0.343-0.749
			c-0.229-0.172-0.552-0.258-0.971-0.258h-0.65v-0.385l1.547-1.716h-2.289v-0.576h3.045v0.41l-1.639,1.823l0.295,0.022
			C12.923,111.477,13.309,111.612,13.599,111.859z"/>
		<path class="st0" d="M20.012,112.411v-0.438h1.776v0.438H20.012z"/>
		<path class="st0" d="M30.623,109.52c0.292,0.234,0.438,0.552,0.438,0.95c0,0.241-0.083,0.509-0.25,0.803s-0.394,0.598-0.685,0.91
			l-1.628,1.724h2.864v0.576h-3.636v-0.498l1.982-2.156c0.221-0.222,0.397-0.446,0.528-0.676c0.13-0.229,0.195-0.429,0.195-0.602
			c0-0.256-0.093-0.457-0.278-0.604c-0.186-0.146-0.445-0.22-0.777-0.22c-0.241,0-0.489,0.059-0.744,0.174
			c-0.255,0.115-0.488,0.277-0.7,0.483l-0.266-0.483c0.256-0.231,0.539-0.411,0.849-0.541c0.31-0.129,0.621-0.193,0.934-0.193
			C29.941,109.167,30.331,109.284,30.623,109.52z"/>
		<path class="st0" d="M36.613,109.271c0.27,0.068,0.513,0.161,0.729,0.276l-0.244,0.483c-0.172-0.101-0.366-0.18-0.581-0.237
			c-0.215-0.059-0.427-0.087-0.633-0.087c-0.519,0-0.92,0.187-1.204,0.559c-0.283,0.373-0.424,0.882-0.424,1.526
			c0,0.121,0.002,0.212,0.007,0.273c0.116-0.312,0.312-0.553,0.587-0.72c0.276-0.167,0.607-0.251,0.993-0.251
			c0.519,0,0.929,0.15,1.229,0.45c0.3,0.301,0.451,0.705,0.451,1.215c0,0.539-0.163,0.966-0.487,1.28
			c-0.325,0.315-0.759,0.473-1.303,0.473c-0.645,0-1.15-0.224-1.515-0.672c-0.366-0.447-0.548-1.077-0.548-1.89
			c0-0.554,0.088-1.041,0.264-1.462c0.176-0.421,0.427-0.746,0.755-0.977c0.327-0.229,0.712-0.345,1.155-0.345
			C36.087,109.167,36.343,109.201,36.613,109.271z M35.027,111.772c-0.202,0.108-0.357,0.253-0.465,0.435
			c-0.108,0.181-0.16,0.377-0.155,0.589c-0.005,0.182,0.041,0.362,0.137,0.54c0.096,0.179,0.241,0.326,0.436,0.443
			s0.432,0.175,0.712,0.175c0.379,0,0.684-0.107,0.916-0.324c0.231-0.217,0.347-0.51,0.347-0.879c0-0.352-0.109-0.63-0.328-0.834
			c-0.219-0.204-0.515-0.307-0.886-0.307C35.467,111.61,35.229,111.665,35.027,111.772z"/>
		<path class="st0" d="M45.503,114.089c-0.267,0.282-0.638,0.423-1.113,0.423c-0.293,0-0.563-0.065-0.812-0.195
			c-0.249-0.131-0.466-0.317-0.653-0.562l0.303-0.483c0.167,0.197,0.35,0.349,0.548,0.454c0.198,0.105,0.4,0.159,0.607,0.159
			c0.293,0,0.518-0.086,0.674-0.257s0.234-0.42,0.234-0.748v-3.107H43.4v-0.584h2.503v3.707
			C45.903,113.409,45.769,113.808,45.503,114.089z"/>
		<path class="st0" d="M52.624,113.927c-0.395,0.391-0.937,0.585-1.628,0.585c-0.697,0-1.243-0.194-1.638-0.585
			c-0.395-0.39-0.592-0.931-0.592-1.622v-3.116h0.606v3.116c0,0.509,0.145,0.907,0.436,1.194c0.29,0.286,0.687,0.43,1.188,0.43
			c0.504,0,0.899-0.143,1.185-0.427s0.428-0.683,0.428-1.197v-3.116h0.605v3.116C53.214,112.996,53.017,113.537,52.624,113.927z"/>
		<path class="st0" d="M59.982,114.482l-3.175-4.249v4.249h-0.605v-5.294h0.628l3.175,4.257v-4.257h0.598v5.294H59.982z"/>
		<path class="st0" d="M64.33,109.772v1.738h2.669v0.583H64.33v1.812h3.086v0.576h-3.691v-5.294h3.592v0.584H64.33z"/>
		<path class="st0" d="M76.197,109.52c0.291,0.234,0.438,0.552,0.438,0.95c0,0.241-0.083,0.509-0.249,0.803s-0.395,0.598-0.686,0.91
			l-1.628,1.724h2.865v0.576h-3.637v-0.498l1.982-2.156c0.222-0.222,0.397-0.446,0.528-0.676c0.13-0.229,0.195-0.429,0.195-0.602
			c0-0.256-0.093-0.457-0.278-0.604c-0.187-0.146-0.445-0.22-0.777-0.22c-0.241,0-0.489,0.059-0.744,0.174
			c-0.254,0.115-0.487,0.277-0.699,0.483l-0.266-0.483c0.256-0.231,0.539-0.411,0.849-0.541c0.311-0.129,0.622-0.193,0.935-0.193
			C75.514,109.167,75.905,109.284,76.197,109.52z"/>
		<path class="st0" d="M83.043,109.862c0.377,0.459,0.566,1.117,0.566,1.974s-0.189,1.514-0.566,1.973
			c-0.378,0.459-0.918,0.688-1.619,0.688s-1.24-0.229-1.617-0.688c-0.376-0.459-0.564-1.116-0.564-1.973s0.188-1.515,0.566-1.974
			s0.916-0.688,1.615-0.688C82.125,109.174,82.665,109.403,83.043,109.862z M80.248,110.227c-0.265,0.356-0.396,0.893-0.396,1.609
			c0,0.711,0.134,1.247,0.402,1.607c0.268,0.36,0.658,0.541,1.17,0.541c0.515,0,0.905-0.181,1.172-0.541
			c0.268-0.36,0.4-0.896,0.4-1.607c0-0.717-0.132-1.253-0.396-1.609c-0.265-0.357-0.656-0.535-1.176-0.535
			S80.513,109.869,80.248,110.227z"/>
		<path class="st0" d="M86.722,114.482v-4.718h-1.074v-0.576h1.669v5.294H86.722z"/>
		<path class="st0" d="M91.602,114.482H90.96l2.178-4.71h-2.466v0.771h-0.543v-1.355h3.674v0.51L91.602,114.482z"/>
	</g>
</g>
<g id="Shape_1_1_" class="st1">
	<g id="Shape_1">
		<g>
			<rect x="0" y="105.584" class="st2" width="100.56" height="0.24"/>
		</g>
	</g>
</g>
<g id="Shape_1_copy_1_" class="st1">
	<g id="Shape_1_copy">
		<g>
			<rect x="0" y="117.824" class="st2" width="100.56" height="0.24"/>
		</g>
	</g>
</g>
<g id="Bournemouth_University">
	<g>
		<path class="st0" d="M2.981,0.302C3.241,0.503,3.37,0.781,3.37,1.136c0,0.268-0.073,0.492-0.22,0.671S2.799,2.103,2.535,2.158
			c0.329,0.048,0.584,0.174,0.766,0.376c0.181,0.203,0.272,0.46,0.272,0.772c0,0.384-0.145,0.685-0.435,0.903
			s-0.69,0.328-1.201,0.328h-1.943V0h1.911C2.363,0,2.722,0.101,2.981,0.302z M0.513,1.958H1.88c0.306,0,0.543-0.064,0.712-0.191
			c0.169-0.128,0.253-0.311,0.253-0.549c0-0.229-0.084-0.407-0.253-0.531C2.424,0.562,2.186,0.5,1.88,0.5H0.513V1.958z M0.513,4.043
			H1.88c0.372,0,0.659-0.07,0.862-0.21c0.204-0.14,0.305-0.34,0.305-0.6c0-0.247-0.103-0.438-0.308-0.576
			C2.534,2.521,2.247,2.452,1.88,2.452H0.513V4.043z"/>
		<path class="st0" d="M8.099,0.292c0.363,0.204,0.65,0.479,0.862,0.828C9.174,1.468,9.28,1.851,9.28,2.269
			c0,0.42-0.106,0.805-0.318,1.155c-0.212,0.35-0.5,0.627-0.862,0.832S7.34,4.562,6.909,4.562c-0.437,0-0.836-0.103-1.199-0.307
			S5.06,3.773,4.848,3.423C4.636,3.073,4.53,2.688,4.53,2.269s0.106-0.804,0.318-1.153C5.06,0.766,5.347,0.491,5.71,0.29
			c0.363-0.202,0.763-0.302,1.199-0.302C7.34-0.013,7.737,0.089,8.099,0.292z M5.986,0.721C5.703,0.881,5.477,1.098,5.308,1.37
			C5.14,1.642,5.055,1.941,5.055,2.269c0,0.329,0.084,0.631,0.253,0.905c0.169,0.274,0.395,0.491,0.677,0.65
			s0.591,0.239,0.924,0.239c0.333,0,0.64-0.08,0.919-0.239c0.279-0.159,0.502-0.376,0.669-0.65c0.167-0.274,0.25-0.576,0.25-0.905
			s-0.083-0.629-0.25-0.9s-0.39-0.487-0.67-0.647c-0.281-0.16-0.587-0.24-0.918-0.24C6.576,0.481,6.268,0.561,5.986,0.721z"/>
		<path class="st0" d="M13.751,4.061c-0.337,0.334-0.803,0.501-1.396,0.501c-0.597,0-1.064-0.167-1.403-0.501
			c-0.338-0.334-0.508-0.798-0.508-1.391V0h0.519v2.67c0,0.437,0.125,0.778,0.374,1.023c0.249,0.246,0.588,0.369,1.019,0.369
			c0.433,0,0.771-0.122,1.016-0.365s0.367-0.586,0.367-1.027V0h0.519v2.67C14.258,3.263,14.089,3.727,13.751,4.061z"/>
		<path class="st0" d="M17.876,3.091c-0.129,0.008-0.23,0.013-0.304,0.013h-1.206v1.433h-0.519V0h1.725
			c0.565,0,1.004,0.133,1.318,0.398c0.313,0.266,0.47,0.641,0.47,1.126c0,0.371-0.087,0.682-0.263,0.932s-0.426,0.43-0.753,0.54
			l1.06,1.541h-0.589L17.876,3.091z M18.526,2.335c0.223-0.182,0.334-0.447,0.334-0.797c0-0.342-0.111-0.6-0.334-0.775
			C18.304,0.587,17.985,0.5,17.572,0.5h-1.206v2.107h1.206C17.985,2.607,18.304,2.517,18.526,2.335z"/>
		<path class="st0" d="M24.094,4.537l-2.721-3.642v3.642h-0.519V0h0.538l2.721,3.648V0h0.512v4.537H24.094z"/>
		<path class="st0" d="M26.848,0.5v1.49h2.288v0.5h-2.288v1.554h2.645v0.494h-3.164V0h3.079v0.5H26.848z"/>
		<path class="st0" d="M34.981,4.537l-0.01-3.74L33.32,4.056h-0.31l-1.646-3.259v3.74H30.87V0h0.643l1.658,3.269L34.823,0h0.636
			v4.537H34.981z"/>
		<path class="st0" d="M40.304,0.292c0.363,0.204,0.65,0.479,0.862,0.828c0.212,0.348,0.318,0.73,0.318,1.148
			c0,0.42-0.106,0.805-0.318,1.155c-0.212,0.35-0.5,0.627-0.862,0.832s-0.759,0.307-1.19,0.307c-0.437,0-0.836-0.103-1.199-0.307
			s-0.65-0.482-0.862-0.832c-0.212-0.35-0.318-0.735-0.318-1.155s0.106-0.804,0.318-1.153c0.212-0.349,0.499-0.625,0.862-0.826
			c0.363-0.202,0.763-0.302,1.199-0.302C39.545-0.013,39.941,0.089,40.304,0.292z M38.19,0.721c-0.283,0.16-0.508,0.376-0.677,0.649
			c-0.168,0.272-0.253,0.571-0.253,0.898c0,0.329,0.084,0.631,0.253,0.905c0.169,0.274,0.395,0.491,0.677,0.65
			s0.591,0.239,0.924,0.239c0.333,0,0.64-0.08,0.919-0.239c0.279-0.159,0.502-0.376,0.669-0.65c0.167-0.274,0.25-0.576,0.25-0.905
			s-0.083-0.629-0.25-0.9s-0.39-0.487-0.67-0.647c-0.281-0.16-0.587-0.24-0.918-0.24C38.781,0.481,38.473,0.561,38.19,0.721z"/>
		<path class="st0" d="M45.956,4.061c-0.337,0.334-0.803,0.501-1.396,0.501c-0.597,0-1.064-0.167-1.403-0.501
			c-0.338-0.334-0.508-0.798-0.508-1.391V0h0.519v2.67c0,0.437,0.125,0.778,0.374,1.023c0.249,0.246,0.588,0.369,1.019,0.369
			c0.433,0,0.771-0.122,1.016-0.365s0.367-0.586,0.367-1.027V0h0.519v2.67C46.462,3.263,46.293,3.727,45.956,4.061z"/>
		<path class="st0" d="M49.432,0.5v4.037h-0.52V0.5h-1.475V0h3.477v0.5H49.432z"/>
		<path class="st0" d="M55.242,4.537V2.541h-2.734v1.997h-0.519V0h0.519v2.05h2.734V0h0.519v4.537H55.242z"/>
		<path class="st0" d="M62.76,4.061c-0.338,0.334-0.803,0.501-1.396,0.501c-0.597,0-1.064-0.167-1.403-0.501
			c-0.338-0.334-0.508-0.798-0.508-1.391V0h0.52v2.67c0,0.437,0.124,0.778,0.373,1.023s0.588,0.369,1.019,0.369
			c0.433,0,0.771-0.122,1.016-0.365c0.245-0.244,0.367-0.586,0.367-1.027V0h0.519v2.67C63.265,3.263,63.097,3.727,62.76,4.061z"/>
		<path class="st0" d="M68.096,4.537l-2.722-3.642v3.642h-0.519V0h0.538l2.721,3.648V0h0.513v4.537H68.096z"/>
		<path class="st0" d="M70.331,4.537V0h0.519v4.537H70.331z"/>
		<path class="st0" d="M73.741,4.537L71.899,0h0.557l1.563,3.936L75.589,0h0.544l-1.854,4.537H73.741z"/>
		<path class="st0" d="M77.696,0.5v1.49h2.288v0.5h-2.288v1.554h2.646v0.494h-3.164V0h3.079v0.5H77.696z"/>
		<path class="st0" d="M83.748,3.091c-0.129,0.008-0.23,0.013-0.304,0.013h-1.206v1.433H81.72V0h1.725
			c0.565,0,1.005,0.133,1.317,0.398c0.313,0.266,0.47,0.641,0.47,1.126c0,0.371-0.087,0.682-0.262,0.932
			c-0.176,0.25-0.427,0.43-0.754,0.54l1.061,1.541h-0.589L83.748,3.091z M84.398,2.335c0.223-0.182,0.334-0.447,0.334-0.797
			c0-0.342-0.111-0.6-0.334-0.775C84.176,0.587,83.857,0.5,83.444,0.5h-1.206v2.107h1.206C83.857,2.607,84.176,2.517,84.398,2.335z"
			/>
		<path class="st0" d="M88.846,0.095c0.255,0.076,0.478,0.178,0.668,0.307l-0.222,0.487c-0.194-0.129-0.401-0.225-0.622-0.288
			c-0.221-0.063-0.43-0.095-0.628-0.095c-0.293,0-0.527,0.053-0.702,0.158c-0.176,0.106-0.263,0.254-0.263,0.446
			c0,0.165,0.048,0.301,0.146,0.408c0.097,0.107,0.219,0.191,0.365,0.251s0.348,0.129,0.603,0.208
			c0.311,0.099,0.56,0.192,0.748,0.278c0.189,0.086,0.351,0.214,0.484,0.383s0.201,0.391,0.201,0.667
			c0,0.251-0.068,0.471-0.204,0.658c-0.136,0.188-0.329,0.333-0.577,0.437c-0.249,0.104-0.536,0.155-0.861,0.155
			c-0.324,0-0.64-0.063-0.945-0.188c-0.307-0.125-0.569-0.293-0.788-0.504l0.23-0.465c0.207,0.203,0.446,0.36,0.717,0.472
			c0.271,0.112,0.535,0.167,0.793,0.167c0.329,0,0.588-0.063,0.778-0.191c0.189-0.127,0.284-0.299,0.284-0.514
			c0-0.168-0.049-0.308-0.148-0.417c-0.099-0.11-0.222-0.195-0.368-0.256s-0.348-0.13-0.603-0.206
			c-0.307-0.091-0.555-0.178-0.746-0.263c-0.19-0.084-0.352-0.21-0.483-0.376s-0.198-0.386-0.198-0.658
			c0-0.234,0.065-0.44,0.195-0.617c0.129-0.177,0.313-0.314,0.552-0.411s0.513-0.146,0.822-0.146
			C88.334-0.019,88.592,0.019,88.846,0.095z"/>
		<path class="st0" d="M91.009,4.537V0h0.519v4.537H91.009z"/>
		<path class="st0" d="M94.605,0.5v4.037h-0.52V0.5h-1.474V0h3.477v0.5H94.605z"/>
		<path class="st0" d="M98.769,4.537h-0.513V3.002L96.501,0h0.538l1.471,2.367L99.962,0h0.532l-1.725,2.98V4.537z"/>
	</g>
</g>
</svg>
